<svg id="Layer_1" data-name="Layer 1" xmlns="http://www.w3.org/2000/svg" viewBox="0 0 646 249.38"><defs><style>.cls-1,.cls-3{fill:#5cb583;}.cls-2{fill:#fc8300;}.cls-3{font-size:212.19px;font-family:AntipastoPro-ExtraBold, Antipasto Pro;font-weight:700;letter-spacing:-0.03em;}.cls-4{letter-spacing:-0.03em;}.cls-5{letter-spacing:-0.04em;}</style></defs><title>svg</title><path class="cls-1" d="M290,507.19c0-11.62-8.93-21.57-20.53-22.16q-.61,0-1.22,0T267,485c-10.69.57-18.89,9.77-18.89,20.47,0,0,.09,56.8-.19,58.77a14.7,14.7,0,0,1-9,11.63c-11.14,4.42-21.73-3.67-21.73-14.23V498.88a36.91,36.91,0,0,1,6.25-20.72,54.42,54.42,0,0,1,24.68-19.92c1.52-.61,3.08-1.16,4.67-1.63A54.35,54.35,0,0,1,290,458.9q.82.36,1.63.75C309.77,468.33,321,487,321,507.06v54.2A15.73,15.73,0,0,1,307.26,577,15.47,15.47,0,0,1,290,561.67" transform="translate(-217 -415.31)"/><path class="cls-2" d="M225.64,466.42c5-4.87,9.2-8.81,15.6-11.89a57.31,57.31,0,0,1,6.87-2.95v-2.52a6.75,6.75,0,0,0-2.91-5.49A18.86,18.86,0,0,0,229,441.3,17.46,17.46,0,0,0,217.18,458v20C219.17,475.14,223.14,468.84,225.64,466.42Z" transform="translate(-217 -415.31)"/><circle class="cls-2" cx="88.32" cy="182.29" r="15.65"/><circle class="cls-2" cx="15.65" cy="182.29" r="15.65"/><text class="cls-3" transform="translate(149.59 174.05)">na<tspan class="cls-4" x="215.69" y="0">t</tspan><tspan class="cls-5" x="280.73" y="0">an</tspan></text><path class="cls-2" d="M697.31,470.35s19-21.33,34-21.33h0a8.8,8.8,0,0,1,5.91,15.31l-14.64,13.28a28,28,0,0,1-18.83,7.27h0A8.71,8.71,0,0,1,697.31,470.35Z" transform="translate(-217 -415.31)"/></svg>